Kill Bill Vol. 1 2003 BluRay 1080p ac3 x264-LoNeWoLf

Encoded by Tequila-Bob a.k.a. bobnjeff a.k.a.LoNeWoLf

Source - NTSC BluRay Disc.

Movie has been tested and is DXVA Compliant
 
http://www.imdb.com/title/tt0266697/

Genres:Action, Crime , Thriller

Rated R for strong bloody violence, language and some sexual content

Kill Bill: Vol. 1 (2003) 
  111 min  -  Action | Crime | Thriller   -  10 October 2003 (USA) 
8.2/10 X  Users: 8.2/10 (242,594 votes) 1,986 reviews | Critics: 350 reviews 
The Bride wakes up after a long coma. The baby that she carried before entering the coma is gone. The only thing on her mind is to have revenge on the assassination team that betrayed her - a team she was once part of. 


Director: Quentin Tarantino
Writers: Quentin Tarantino, Quentin Tarantino (character The Bride), and 1 more credit » 
Stars:Uma Thurman, David Carradine , Daryl Hannah

Cast
Cast overview, first billed only: 
  Uma Thurman  ...  The Bride  
  Lucy Liu  ...  O-Ren Ishii  
  Vivica A. Fox  ...  Vernita Green  
  Daryl Hannah  ...  Elle Driver  
  David Carradine  ...  Bill  
  Michael Madse  ...  Budd  
  Julien Dreyfus  ...  Sofie Fatale  
  Chiaki Kuriyama  ...  Gogo Yubari  
  Sonny Chiba  ...  Hattori Hanzo  
  Chia Hui Liu  ...  Johnny Mo (as Gordon Liu)  
  Michael Parks  ...  Earl McGraw  
  Michael Bowen  ...  Buck  
  Jun Kunimura  ...  Boss Tanaka  
  Kenji Ohba  ...  Bald Guy (Sushi Shop) (as Kenji Oba)  

Storyline
The lead character, called 'The Bride,' was a member of the Deadly Viper Assassination Squad, lead by her lover 'Bill.' Upon realizing she was pregnant with Bill's child, 'The Bride' decided to escape her life as a killer. She fled to Texas, met a young man, and on the day of their wedding was gunned down by an angry and jealous Bill (with the assistance of the Deadly Viper Assassination Squad). Four years later, 'The Bride' wakes from a coma, and discovers her baby is gone. She, then, decides to seek revenge upon the five people who destroyed her life and killed her baby. The saga of Kill Bill Volume I begins




[img]http://torrent-stats.info/a1ad/b06061fb.png[/img]


See the full size 1920x800 PNG files at the link below
 
http://s1015.photobucket.com/albums/af279/tequila-bob/Kill%20Bill%20Vol%201%202003/



Format : Matroska 
File size : 7.95 GiB 
Duration : 1h 50mn 
Overall bit rate : 10.3 Mbps 
Encoded date : UTC 2010-12-24 01:16:57 
Writing application : mkvmerge v4.4.0 ('Die Wiederkehr') built on Oct 31 2010 21:52:48 
Writing library : libebml v1.0.0 + libmatroska v1.0.0 

Video 
ID : 1 
Format : AVC 
Format/Info : Advanced Video Codec 
Format profile : High@L4.1 
Format settings, CABAC : Yes 
Format settings, ReFrames : 4 frames 
Muxing mode : Container profile=Unknown@4.1 
Codec ID : V_MPEG4/ISO/AVC 
Duration : 1h 50mn 
Bit rate : 9 640 Kbps 
Width : 1 920 pixels 
Height : 800 pixels 
Display aspect ratio : 2.40:1 
Frame rate : 23.976 fps 
Color space : YUV 
Chroma subsampling : 4:2:0 
Bit depth : 8 bits 
Scan type : Progressive 
Bits/(Pixel*Frame) : 0.262 
Stream size : 7.30 GiB (92%) 
Writing library : x264 core 98 r1649 c54c47d 
Encoding settings : cabac=1 / ref=5 / deblock=1:-3:-3 / analyse=0x3:0x113 / me=umh / subme=9 / psy=1 / psy_rd=1.00:0.15 / mixed_ref=1 / me_range=32 / chroma_me=1 / trellis=2 / 8x8dct=1 / cqm=0 / deadzone=21,11 / fast_pskip=0 / chroma_qp_offset=-3 / threads=6 / sliced_threads=0 / nr=0 / decimate=1 / interlaced=0 / constrained_intra=0 / bframes=3 / b_pyramid=1 / b_adapt=2 / b_bias=0 / direct=1 / weightb=1 / weightp=2 / keyint=250 / keyint_min=25 / scenecut=40 / intra_refresh=0 / rc_lookahead=60 / rc=2pass / mbtree=1 / bitrate=9640 / ratetol=1.0 / qcomp=0.60 / qpmin=10 / qpmax=51 / qpstep=4 / cplxblur=20.0 / qblur=0.5 / vbv_maxrate=50000 / vbv_bufsize=50000 / ip_ratio=1.40 / aq=1:1.50 / nal_hrd=none 
Language : English 

Audio 
ID : 2 
Format : AC-3 
Format/Info : Audio Coding 3 
Mode extension : CM (complete main) 
Codec ID : A_AC3 
Duration : 1h 50mn 
Bit rate mode : Constant 
Bit rate : 640 Kbps 
Channel(s) : 6 channels 
Channel positions : Front: L C R, Side: L R, LFE 
Sampling rate : 48.0 KHz 
Bit depth : 16 bits 
Stream size : 507 MiB (6%) 
Title : 3/2+1 
Language : English 

Text #1 
ID : 3 
Format : PGS 
Codec ID : S_HDMV/PGS 
Codec ID/Info : The same subtitle format used on BDs/HD-DVDs 
Language : English 
Text #2 
Language : Spanish 
Text #3  
Language : Japanese 
Text #4 
Language : Korean 
Text #5 
Language : Chinese 
Text #6 
Language : English 
Text #7 
Language : French 

Menu & 19 Chapters


See the full size 1920x800 PNG files at the link below
 
http://s1015.photobucket.com/albums/af279/tequila-bob/Kill%20Bill%20Vol%201%202003/